<?xml version="1.0" encoding="UTF-8" standalone="no"?>
<svg
   id="Ebene_1"
   data-name="Ebene 1"
   viewBox="0 0 56.709999 56.72"
   version="1.1"
   width="56.709999"
   height="56.720001"
   xml:space="preserve"
   xmlns="http://www.w3.org/2000/svg"
   xmlns:svg="http://www.w3.org/2000/svg"
   xmlns:rdf="http://www.w3.org/1999/02/22-rdf-syntax-ns#"
   xmlns:cc="http://creativecommons.org/ns#"
   xmlns:dc="http://purl.org/dc/elements/1.1/"><defs
     id="defs1"><style
       id="style1">.cls-1{fill:#1a1a18;}.cls-2{fill:#f39100;}</style></defs><title
     id="title1">logo-th-rosenheim-2019_master_quer_2c</title><path
     class="cls-2"
     d="M 7.94,28 A 20.27,20.27 0 0 1 9.86,19.69 V 6.9 A 28.27,28.27 0 0 0 0.02,28 Z"
     id="path30"
     style="display:none" /><path
     class="cls-2"
     d="M 48.78,28 H 56.7 A 28.35,28.35 0 0 0 28.85,0 V 7.91 A 20.45,20.45 0 0 1 48.78,28 Z"
     id="path31"
     style="display:inline" /><path
     class="cls-2"
     d="M 28.04,56.72 V 48.79 A 20.44,20.44 0 0 1 7.94,28.69 H 0.02 a 28.35,28.35 0 0 0 28,28 h 0.07 z"
     id="path32" /><path
     class="cls-2"
     d="M 56.7,28.69 H 48.77 A 20.44,20.44 0 0 1 28.7,48.79 v 7.93 h 0.06 a 28.35,28.35 0 0 0 27.95,-28 v 0 z"
     id="path33" /><path
     class="cls-2"
     d="M 7.92,28 H 0 A 28.35,28.35 0 0 1 27.85,0 V 7.91 A 20.45,20.45 0 0 0 7.92,28 Z"
     id="path39"
     style="display:inline" /><path
     class="cls-1"
     d="M 27.89,0.03 A 28.22,28.22 0 0 0 17.7,2.1 V 0.17 H 9.8 v 27.7 h 7.9 V 10.94 a 20.27,20.27 0 0 1 10.17,-3 z"
     id="path34"
     style="display:none" /><path
     class="cls-1"
     d="M 27.7,27.73 H 0.34 V 0.34 H 27.7 Z M 0,28.05 h 28 v -28 H 0 Z"
     id="path35" /><path
     class="cls-1"
     d="M 56.39,27.73 H 29.01 V 0.34 H 56.39 Z M 28.7,28.05 h 28 v -28 h -28 z"
     id="path36"
     style="display:inline" /><path
     class="cls-1"
     d="M 27.7,56.4 H 0.34 V 29.01 H 27.7 Z M 0,56.72 h 28 v -28 H 0 Z"
     id="path37" /><path
     class="cls-1"
     d="M 56.39,56.4 H 29.01 V 29.01 H 56.39 Z M 28.7,56.72 h 28 v -28 h -28 z"
     id="path38" /><path
     class="st0"
     d="m 44.894284,22.676178 c -0.4258,-0.496885 -0.707449,-0.783553 -1.21542,-1.304248 -1.630016,-1.667541 -3.104267,-3.142318 -3.105842,-3.143835 l -0.734821,-0.735344 -1.017519,0.993649 2.104547,3.194141 0.02183,0.04464 c 0.01115,0.03449 0.02183,0.09139 0.02183,0.164927 0.003,0.15781 -0.05685,0.385709 -0.144677,0.543515 L 40.6395,22.773634 c -0.213659,0.394285 -0.333415,1.23217 -0.332948,1.6676 -5.16e-4,0.419147 0.09898,0.840392 0.298457,1.224522 l 0.36388,0.701847 c 0.425741,0.821135 1.245826,1.350936 2.158821,1.42097 l 0.175083,0.0548 c 0,2.309567 0,5.188502 0,7.402182 -0.003,0.644477 -0.192358,1.028143 -0.401989,1.262634 -0.213133,0.23292 -0.464843,0.328807 -0.695252,0.329388 -0.223288,-0.0041 -0.42119,-0.07867 -0.607943,-0.288769 -0.182669,-0.21109 -0.371467,-0.600822 -0.37351,-1.303195 0,-2.078694 0,-2.598336 0,-3.897504 -5.15e-4,-0.41512 -0.0838,-0.826155 -0.236009,-1.224059 -0.229359,-0.594756 -0.618683,-1.167214 -1.187526,-1.609704 -0.564815,-0.442551 -1.323504,-0.73488 -2.172536,-0.731788 -0.09945,0 -0.199886,0.0056 -0.301376,0.01321 V 16.218397 c 5.9e-5,-1.545798 -1.252946,-2.798745 -2.798747,-2.798745 h -12.27858 c -1.545801,0 -2.798746,1.252947 -2.798746,2.798745 V 39.922546 H 17.631707 V 43.30035 H 39.14546 V 39.922546 H 37.32665 V 29.88752 c 0.10756,-0.01575 0.210098,-0.02638 0.301375,-0.02638 0.26239,0.0011 0.46747,0.05428 0.647571,0.140065 0.267993,0.127926 0.488712,0.344095 0.643485,0.603916 0.155824,0.255736 0.228891,0.552154 0.226381,0.742934 0,1.299168 0,1.818811 0,3.897504 -0.002,1.082944 0.310013,2.008602 0.882999,2.666796 0.568375,0.659767 1.380815,1.008415 2.177089,1.00433 0.82773,3.44e-4 1.644254,-0.359794 2.234983,-1.011916 0.593762,-0.651599 0.943926,-1.584377 0.940891,-2.65921 0,-3.377803 0,-8.769341 0,-10.847976 5.9e-5,-0.974392 -0.09734,-1.26672 -0.487137,-1.721408 z m -11.724906,3.994907 h -9.561531 v -9.094122 h 9.561473 v 9.094122 z m 10.133467,-0.878446 c 0,0.163876 -0.0939,0.240565 -0.227374,0.237996 -0.251184,-0.0041 -0.642493,-0.05836 -0.811973,-0.333941 -0.30295,-0.492273 -0.711007,-1.451431 -0.268984,-2.203467 0.04716,-0.08019 0.150221,-0.209106 0.33394,-0.08626 l 0.591195,0.542988 c 0.244064,0.223291 0.383138,0.538439 0.383138,0.869285 5.8e-5,0 5.8e-5,0.809464 5.8e-5,0.973397 z"
     id="path1"
     style="stroke-width:0.0583608" /><style
     type="text/css"
     id="style1-8">
	.st0{fill:#000000;}
</style><metadata
     id="metadata39"><rdf:RDF><cc:Work
         rdf:about=""><dc:title>logo-th-rosenheim-2019_master_quer_2c</dc:title></cc:Work></rdf:RDF></metadata></svg>
