<svg xmlns="http://www.w3.org/2000/svg" xmlns:xlink="http://www.w3.org/1999/xlink" version="1.1" width="2290" height="1500" style="width: 2290px; height: 1500px; background: #ffffff" viewBox="0 0 2290 1500"><style id="v-3" type="text/css">        .joint-element .scalable * {            vector-effect: non-scaling-stroke;        }    </style><defs joint-selector="defs"><marker id="v-2633353823" orient="auto" overflow="visible" markerUnits="userSpaceOnUse"><path id="v-99" stroke="#444444" fill="#444444" transform="rotate(180)" d="M 40 -20 0 0 40 20 Z"></path></marker></defs><g joint-selector="layers"  transform="matrix(1,0,0,1,0,0)"><g  style="pointer-events: none;"></g><g ></g><g  style="user-select: none;"><!--z-index:1--><!--z-index:2--><!--z-index:3--><!--z-index:4--><!--z-index:5--><!--z-index:6--><!--z-index:7--><!--z-index:8--><!--z-index:9--><g   id="j_18"  transform="translate(20,1456)"><g id="v-192"><text  id="v-193" font-size="24px" xml:space="preserve" y="0.8em" font-weight="normal" text-anchor="start" fill="#444444" pointer-events="none" display="block" font-family="Tahoma, Verdana, Helvetica, Arial"><tspan dy="0" >Sonntag, 22. März 2026 um 10:55 Mitteleuropäische Normalzeit</tspan></text></g></g><!--z-index:10--><g   id="j_17"  transform="translate(20,1410)"><g id="v-190"><text  id="v-191" font-size="36px" xml:space="preserve" y="0.8em" font-weight="normal" text-anchor="start" fill="#444444" pointer-events="none" display="block" font-family="Tahoma, Verdana, Helvetica, Arial"><tspan dy="0" >System Context View: Tanker24</tspan></text></g></g><!--z-index:11--><g   id="j_19"  transform="translate(75,530)" style=""><g  id="v-194" style="opacity: 1;"><rect  x="0" y="160" width="400" height="240" rx="70" id="v-196" stroke-width="7" pointer-events="visiblePainted" fill="#ffffff" stroke="#0773af" stroke-dasharray="" style="fill: rgb(255, 255, 255); stroke: rgb(7, 115, 175);"></rect><circle  cx="200" cy="88.88888888888889" r="88.88888888888889" id="v-195" stroke-width="7" pointer-events="visiblePainted" fill="#ffffff" stroke="#0773af" stroke-dasharray="" style="fill: rgb(255, 255, 255); stroke: rgb(7, 115, 175);"></circle><line  x1="80" y1="266.6666666666667" x2="80" y2="400" id="v-202" stroke="#0773af" stroke-width="1" stroke-dasharray="" style="stroke: rgb(7, 115, 175);"></line><line  x1="320" y1="266.6666666666667" x2="320" y2="400" id="v-203" stroke="#0773af" stroke-width="1" stroke-dasharray="" style="stroke: rgb(7, 115, 175);"></line><text  id="v-197" font-size="33.599999999999994px" xml:space="preserve" y="231.3" font-weight="bold" text-anchor="middle" pointer-events="visible" font-family="Tahoma, Verdana, Helvetica, Arial" fill="#0773af" dominant-baseline="hanging" transform="matrix(1,0,0,1,200,0)" style="fill: rgb(7, 115, 175);"><tspan dy="0" >User</tspan></text><text  id="v-198" font-size="16.799999999999997px" xml:space="preserve" y="272.9" text-anchor="middle" font-family="Tahoma, Verdana, Helvetica, Arial" fill="#0773af" dominant-baseline="hanging" transform="matrix(1,0,0,1,200,0)" style="display: block; fill: rgb(7, 115, 175);"><tspan dy="0" >[Person]</tspan></text><text  id="v-199" font-size="24px" xml:space="preserve" y="304.7" text-anchor="middle" font-family="Tahoma, Verdana, Helvetica, Arial" fill="#0773af" dominant-baseline="hanging" transform="matrix(1,0,0,1,200,0)" style="display: block; fill: rgb(7, 115, 175);"><tspan dy="0" >Car drivers</tspan></text><g  id="v-200" font-weight="normal" text-anchor="middle" color="#0773af" transform="matrix(1,0,0,1,197.5,368)" style="fill: rgb(7, 115, 175);" display="none"><g ></g><g ></g><g ></g><g ></g></g><image  id="v-201"></image></g></g><!--z-index:12--><g   id="j_20"  transform="translate(830,570)" style=""><g  id="v-207" style="opacity: 1;"><rect  id="v-208" rx="20" ry="20" stroke-width="7" pointer-events="visiblePainted" fill="#ffffff" stroke="#f88728" stroke-dasharray="" width="450" height="300" style="fill: rgb(255, 255, 255); stroke: rgb(248, 135, 40);"></rect><text  id="v-209" font-size="33.599999999999994px" xml:space="preserve" y="86.9" font-weight="bold" text-anchor="middle" pointer-events="visible" font-family="Tahoma, Verdana, Helvetica, Arial" fill="#f88728" dominant-baseline="hanging" transform="matrix(1,0,0,1,225,0)" style="fill: rgb(248, 135, 40);"><tspan dy="0" >Tanker24</tspan></text><text  id="v-210" font-size="16.799999999999997px" xml:space="preserve" y="128.5" text-anchor="middle" font-family="Tahoma, Verdana, Helvetica, Arial" fill="#f88728" dominant-baseline="hanging" transform="matrix(1,0,0,1,225,0)" style="display: block; fill: rgb(248, 135, 40);"><tspan dy="0" >[Software System]</tspan></text><text  id="v-211" font-size="24px" xml:space="preserve" y="160.3" text-anchor="middle" font-family="Tahoma, Verdana, Helvetica, Arial" fill="#f88728" dominant-baseline="hanging" transform="matrix(1,0,0,1,225,0)" style="display: block; fill: rgb(248, 135, 40);"><tspan dy="0" >Web system for checking gas prices</tspan><tspan dy="1.2em" x="0" >in the user's area.</tspan></text><g  id="v-212" color="#f88728" transform="matrix(1,0,0,1,210,268)" style="fill: rgb(248, 135, 40);" display="none"><g  transform="translate(5 0)"><svg xmlns="http://www.w3.org/2000/svg" width="20" height="20" fill="currentColor" viewBox="0 0 16 16"><path fill-rule="evenodd" d="M6.5 12a5.5 5.5 0 1 0 0-11 5.5 5.5 0 0 0 0 11zM13 6.5a6.5 6.5 0 1 1-13 0 6.5 6.5 0 0 1 13 0z"></path><path d="M10.344 11.742c.03.04.062.078.098.115l3.85 3.85a1 1 0 0 0 1.415-1.414l-3.85-3.85a1.007 1.007 0 0 0-.115-.1 6.538 6.538 0 0 1-1.398 1.4z"></path><path fill-rule="evenodd" d="M6.5 3a.5.5 0 0 1 .5.5V6h2.5a.5.5 0 0 1 0 1H7v2.5a.5.5 0 0 1-1 0V7H3.5a.5.5 0 0 1 0-1H6V3.5a.5.5 0 0 1 .5-.5z"></path></svg></g><g ></g><g ></g><g ></g></g><image  id="v-213"></image></g></g><!--z-index:13--><g   id="j_21"  transform="translate(1670,325)" style=""><g  id="v-217" style="opacity: 1;"><rect  id="v-218" rx="20" ry="20" stroke-width="7" pointer-events="visiblePainted" fill="#ffffff" stroke="#ed3124" stroke-dasharray="" width="450" height="300" style="fill: rgb(255, 255, 255); stroke: rgb(237, 49, 36);"></rect><text  id="v-219" font-size="33.599999999999994px" xml:space="preserve" y="86.9" font-weight="bold" text-anchor="middle" pointer-events="visible" font-family="Tahoma, Verdana, Helvetica, Arial" fill="#ed3124" dominant-baseline="hanging" transform="matrix(1,0,0,1,225,0)" style="fill: rgb(237, 49, 36);"><tspan dy="0" >Tankerkönig</tspan></text><text  id="v-220" font-size="16.799999999999997px" xml:space="preserve" y="128.5" text-anchor="middle" font-family="Tahoma, Verdana, Helvetica, Arial" fill="#ed3124" dominant-baseline="hanging" transform="matrix(1,0,0,1,225,0)" style="display: block; fill: rgb(237, 49, 36);"><tspan dy="0" >[Software System]</tspan></text><text  id="v-221" font-size="24px" xml:space="preserve" y="160.3" text-anchor="middle" font-family="Tahoma, Verdana, Helvetica, Arial" fill="#ed3124" dominant-baseline="hanging" transform="matrix(1,0,0,1,225,0)" style="display: block; fill: rgb(237, 49, 36);"><tspan dy="0" >Free data provider for gas price data</tspan><tspan dy="1.2em" x="0" >based on the Bundeskartellamt API.</tspan></text><g  id="v-222" color="#ed3124" transform="matrix(1,0,0,1,222.5,268)" style="fill: rgb(237, 49, 36);" display="none"><g ></g><g ></g><g ></g><g ></g></g><image  id="v-223"></image></g></g><!--z-index:14--><g   id="j_22"  transform="translate(1670,775)" style=""><g  id="v-227" style="opacity: 1;"><rect  id="v-228" rx="20" ry="20" stroke-width="7" pointer-events="visiblePainted" fill="#ffffff" stroke="#ed3124" stroke-dasharray="" width="450" height="300" style="fill: rgb(255, 255, 255); stroke: rgb(237, 49, 36);"></rect><text  id="v-229" font-size="33.599999999999994px" xml:space="preserve" y="86.9" font-weight="bold" text-anchor="middle" pointer-events="visible" font-family="Tahoma, Verdana, Helvetica, Arial" fill="#ed3124" dominant-baseline="hanging" transform="matrix(1,0,0,1,225,0)" style="fill: rgb(237, 49, 36);"><tspan dy="0" >OpenStreetMap</tspan></text><text  id="v-230" font-size="16.799999999999997px" xml:space="preserve" y="128.5" text-anchor="middle" font-family="Tahoma, Verdana, Helvetica, Arial" fill="#ed3124" dominant-baseline="hanging" transform="matrix(1,0,0,1,225,0)" style="display: block; fill: rgb(237, 49, 36);"><tspan dy="0" >[Software System]</tspan></text><text  id="v-231" font-size="24px" xml:space="preserve" y="160.3" text-anchor="middle" font-family="Tahoma, Verdana, Helvetica, Arial" fill="#ed3124" dominant-baseline="hanging" transform="matrix(1,0,0,1,225,0)" style="display: block; fill: rgb(237, 49, 36);"><tspan dy="0" >Free map data provider for</tspan><tspan dy="1.2em" x="0" >visualisation.</tspan></text><g  id="v-232" color="#ed3124" transform="matrix(1,0,0,1,222.5,268)" style="fill: rgb(237, 49, 36);" display="none"><g ></g><g ></g><g ></g><g ></g></g><image  id="v-233"></image></g></g><!--z-index:15--><g   id="j_23"  style="opacity: 1;"><path fill="none" cursor="pointer" stroke="transparent" stroke-linecap="round" joint-selector="wrapper" id="v-248" stroke-width="10" stroke-linejoin="round" d="M 1280 654.38 L 1670 540.63"></path><path fill="none" pointer-events="none" joint-selector="line" id="v-247" stroke="#444444" stroke-width="4" stroke-linejoin="round" stroke-dasharray="16 16" d="M 1280 654.38 L 1670 540.63" marker-end="url(#v-2633353823)"></path><g id="v-237" ><g id="v-238"  label-idx="0" cursor="move" transform="matrix(1,0,0,1,1475,584.10498046875)" style="cursor: default;"><rect joint-selector="rect" id="v-242" fill="#ffffff" rx="3" ry="3" x="-81.9200439453125" y="-30.33167266845703" width="163.840087890625" height="57.269752502441406" pointer-events="none"  style="display: block;"></rect><text joint-selector="text" id="v-241" font-size="24px" xml:space="preserve" fill="#444444" text-anchor="middle" pointer-events="none" font-family="Tahoma, Verdana, Helvetica, Arial" font-weight="normal"  style="display: block;"><tspan dy="-0.3em" >Get current gas</tspan><tspan dy="1.2em" x="0" >prices</tspan></text></g><g id="v-239"  label-idx="1" cursor="move" transform="matrix(1,0,0,1,1475,628.905029296875)" style="cursor: default;"><rect joint-selector="rect" id="v-244" fill="#ffffff" rx="3" ry="3" x="-26.02313232421875" y="-10.974235534667969" width="52.72720718383789" height="19.572954177856445"  pointer-events="none" style="display: block;"></rect><text joint-selector="text" id="v-243" font-size="16.799999999999997px" xml:space="preserve" fill="#444444" text-anchor="middle" pointer-events="none" font-family="Tahoma, Verdana, Helvetica, Arial" font-weight="normal"  style="display: block;"><tspan dy="0.3em" >[REST]</tspan></text></g><g id="v-240"  label-idx="2" cursor="move" transform="matrix(1,0,0,1,1465,637.3049926757812)" style="cursor: default;"><rect joint-selector="rect" id="v-246" fill="#ffffff" rx="3" ry="3" x="-1.1368683772161603e-13" y="0" width="0" height="0"  display="none"></rect><text joint-selector="text" id="v-245" fill="#000000" font-size="14" text-anchor="middle" text-vertical-anchor="middle" pointer-events="none"></text></g></g></g><!--z-index:16--><g   id="j_24"  style="opacity: 1;"><path fill="none" cursor="pointer" stroke="transparent" stroke-linecap="round" joint-selector="wrapper" id="v-260" stroke-width="10" stroke-linejoin="round" d="M 1280 774.91 L 1670 870.09"></path><path fill="none" pointer-events="none" joint-selector="line" id="v-259" stroke="#444444" stroke-width="4" stroke-linejoin="round" stroke-dasharray="16 16" d="M 1280 774.91 L 1670 870.09" marker-end="url(#v-2633353823)"></path><g id="v-249" ><g id="v-250"  label-idx="0" cursor="move" transform="matrix(1,0,0,1,1475,809.0999755859375)" style="cursor: default;"><rect joint-selector="rect" id="v-254" fill="#ffffff" rx="3" ry="3" x="-45.08174133300781" y="-15.931673049926758" width="90.16348266601562" height="28.469751358032227" pointer-events="none"  style="display: block;"></rect><text joint-selector="text" id="v-253" font-size="24px" xml:space="preserve" fill="#444444" text-anchor="middle" pointer-events="none" font-family="Tahoma, Verdana, Helvetica, Arial" font-weight="normal"  style="display: block;"><tspan dy="0.3em" >Get map</tspan></text></g><g id="v-251"  label-idx="1" cursor="move" transform="matrix(1,0,0,1,1475,839.5)" style="cursor: default;"><rect joint-selector="rect" id="v-256" fill="#ffffff" rx="3" ry="3" x="-26.02313232421875" y="-10.974235534667969" width="52.72720718383789" height="19.572954177856445"  pointer-events="none" style="display: block;"></rect><text joint-selector="text" id="v-255" font-size="16.799999999999997px" xml:space="preserve" fill="#444444" text-anchor="middle" pointer-events="none" font-family="Tahoma, Verdana, Helvetica, Arial" font-weight="normal"  style="display: block;"><tspan dy="0.3em" >[REST]</tspan></text></g><g id="v-252"  label-idx="2" cursor="move" transform="matrix(1,0,0,1,1465,847.9000244140625)" style="cursor: default;"><rect joint-selector="rect" id="v-258" fill="#ffffff" rx="3" ry="3" x="-1.1368683772161603e-13" y="0" width="0" height="0"  display="none"></rect><text joint-selector="text" id="v-257" fill="#000000" font-size="14" text-anchor="middle" text-vertical-anchor="middle" pointer-events="none"></text></g></g></g><!--z-index:17--><g   id="j_25"  style="opacity: 1;"><path fill="none" cursor="pointer" stroke="transparent" stroke-linecap="round" joint-selector="wrapper" id="v-278" stroke-width="10" stroke-linejoin="round" d="M 475 727.44 L 830 722.88"></path><path fill="none" pointer-events="none" joint-selector="line" id="v-277" stroke="#444444" stroke-width="4" stroke-linejoin="round" stroke-dasharray="16 16" d="M 475 727.44 L 830 722.88" marker-end="url(#v-2633353823)"></path><g id="v-267" ><g id="v-268"  label-idx="0" cursor="move" transform="matrix(1,0,0,1,652.5,711.760009765625)" style="cursor: default;"><rect joint-selector="rect" id="v-272" fill="#ffffff" rx="3" ry="3" x="-99.19928741455078" y="-30.33167266845703" width="198.39857482910156" height="57.269752502441406" pointer-events="none"  style="display: block;"></rect><text joint-selector="text" id="v-271" font-size="24px" xml:space="preserve" fill="#444444" text-anchor="middle" pointer-events="none" font-family="Tahoma, Verdana, Helvetica, Arial" font-weight="normal"  style="display: block;"><tspan dy="-0.3em" >Request gas prices</tspan><tspan dy="1.2em" x="0" >in area</tspan></text></g><g id="v-269"  label-idx="1" cursor="move" transform="matrix(1,0,0,1,652.5,756.5599975585938)" style="cursor: default;"><rect joint-selector="rect" id="v-274" fill="#ffffff" rx="3" ry="3" x="-56.67538070678711" y="-10.974235534667969" width="114.01866912841797" height="19.572954177856445"  pointer-events="none" style="display: block;"></rect><text joint-selector="text" id="v-273" font-size="16.799999999999997px" xml:space="preserve" fill="#444444" text-anchor="middle" pointer-events="none" font-family="Tahoma, Verdana, Helvetica, Arial" font-weight="normal"  style="display: block;"><tspan dy="0.3em" >[UI interaction]</tspan></text></g><g id="v-270"  label-idx="2" cursor="move" transform="matrix(1,0,0,1,642.5,764.9600219726562)" style="cursor: default;"><rect joint-selector="rect" id="v-276" fill="#ffffff" rx="3" ry="3" x="-1.1368683772161603e-13" y="0" width="0" height="0"  display="none"></rect><text joint-selector="text" id="v-275" fill="#000000" font-size="14" text-anchor="middle" text-vertical-anchor="middle" pointer-events="none"></text></g></g></g><!--z-index:18--><!--z-index:19--><!--z-index:20--><!--z-index:21--><!--z-index:22--><!--z-index:23--><!--z-index:24--><!--z-index:25--><!--z-index:26--><!--z-index:27--><!--z-index:28--><!--z-index:29--><!--z-index:30--><!--z-index:31--><!--z-index:32--></g><g  style="user-select: none;"></g><g ></g><g  display="none"></g></g></svg>