<svg xmlns="http://www.w3.org/2000/svg" xmlns:xlink="http://www.w3.org/1999/xlink" version="1.1" width="3270" height="1268" style="width: 3270px; height: 1268px; background: #ffffff" viewBox="0 0 3270 1268"><style id="v-3" type="text/css">        .joint-element .scalable * {            vector-effect: non-scaling-stroke;        }    </style><defs joint-selector="defs"><marker id="v-2633353823" orient="auto" overflow="visible" markerUnits="userSpaceOnUse"><path id="v-99" stroke="#444444" fill="#444444" transform="rotate(180)" d="M 40 -20 0 0 40 20 Z"></path></marker></defs><g joint-selector="layers"  transform="matrix(1,0,0,1,0,0)"><g  style="pointer-events: none;"></g><g ></g><g  style="user-select: none;"><!--z-index:1--><!--z-index:2--><!--z-index:3--><!--z-index:4--><!--z-index:5--><!--z-index:6--><!--z-index:7--><!--z-index:8--><!--z-index:9--><!--z-index:10--><!--z-index:11--><!--z-index:12--><!--z-index:13--><!--z-index:14--><!--z-index:15--><!--z-index:16--><g   id="j_27"  transform="translate(20,1224)"><g id="v-281"><text  id="v-282" font-size="24px" xml:space="preserve" y="0.8em" font-weight="normal" text-anchor="start" fill="#444444" pointer-events="none" display="block" font-family="Tahoma, Verdana, Helvetica, Arial"><tspan dy="0"  display="block">Sonntag, 22. März 2026 um 10:55 Mitteleuropäische Normalzeit</tspan></text></g></g><!--z-index:17--><g   id="j_26"  transform="translate(20,1178)"><g id="v-279"><text  id="v-280" font-size="36px" xml:space="preserve" y="0.8em" font-weight="normal" text-anchor="start" fill="#444444" pointer-events="none" display="block" font-family="Tahoma, Verdana, Helvetica, Arial"><tspan dy="0"  display="block">Container View: Tanker24</tspan></text></g></g><!--z-index:18--><g   id="j_28"  transform="translate(200,261)" style=""><g  id="v-283" style="opacity: 1;"><rect  x="0" y="160" width="400" height="240" rx="70" id="v-285" stroke-width="7" pointer-events="visiblePainted" fill="#ffffff" stroke="#0773af" stroke-dasharray="" style="fill: rgb(255, 255, 255); stroke: rgb(7, 115, 175);"></rect><circle  cx="200" cy="88.88888888888889" r="88.88888888888889" id="v-284" stroke-width="7" pointer-events="visiblePainted" fill="#ffffff" stroke="#0773af" stroke-dasharray="" style="fill: rgb(255, 255, 255); stroke: rgb(7, 115, 175);"></circle><line  x1="80" y1="266.6666666666667" x2="80" y2="400" id="v-291" stroke="#0773af" stroke-width="1" stroke-dasharray="" style="stroke: rgb(7, 115, 175);"></line><line  x1="320" y1="266.6666666666667" x2="320" y2="400" id="v-292" stroke="#0773af" stroke-width="1" stroke-dasharray="" style="stroke: rgb(7, 115, 175);"></line><text  id="v-286" font-size="33.599999999999994px" xml:space="preserve" y="231.3" font-weight="bold" text-anchor="middle" pointer-events="visible" font-family="Tahoma, Verdana, Helvetica, Arial" fill="#0773af" dominant-baseline="hanging" transform="matrix(1,0,0,1,200,0)" style="fill: rgb(7, 115, 175);"><tspan dy="0" >User</tspan></text><text  id="v-287" font-size="16.799999999999997px" xml:space="preserve" y="272.9" text-anchor="middle" font-family="Tahoma, Verdana, Helvetica, Arial" fill="#0773af" dominant-baseline="hanging" transform="matrix(1,0,0,1,200,0)" style="display: block; fill: rgb(7, 115, 175);"><tspan dy="0" >[Person]</tspan></text><text  id="v-288" font-size="24px" xml:space="preserve" y="304.7" text-anchor="middle" font-family="Tahoma, Verdana, Helvetica, Arial" fill="#0773af" dominant-baseline="hanging" transform="matrix(1,0,0,1,200,0)" style="display: block; fill: rgb(7, 115, 175);"><tspan dy="0" >Car drivers</tspan></text><g  id="v-289" font-weight="normal" text-anchor="middle" color="#0773af" transform="matrix(1,0,0,1,197.5,368)" style="fill: rgb(7, 115, 175);" display="none"><g ></g><g ></g><g ></g><g ></g></g><image  id="v-290"></image></g></g><!--z-index:19--><g   id="j_30"  transform="translate(940,159)" style="; opacity: 1;"><g id="v-303"><rect  id="v-304" width="2130" height="581" rx="20" ry="20" stroke-width="5" pointer-events="none" stroke="#f88728" fill="#ffffff" opacity="1" stroke-dasharray=""></rect><text  id="v-305" font-size="33.599999999999994px" xml:space="preserve" y="542" font-weight="bold" text-anchor="start" pointer-events="visible" font-family="Tahoma, Verdana, Helvetica, Arial" fill="#f88728" transform="matrix(1,0,0,1,15,0)"><tspan dy="0" >Tanker24</tspan></text><text  id="v-306" font-size="16.799999999999997px" xml:space="preserve" y="566" font-weight="normal" text-anchor="start" pointer-events="visible" font-family="Tahoma, Verdana, Helvetica, Arial" fill="#f88728" transform="matrix(1,0,0,1,15,0)"><tspan dy="0" >[Software System]</tspan></text><image  id="v-307" pointer-events="visible"></image></g></g><!--z-index:20--><g   id="j_29"  transform="translate(990,311)" style=""><g  id="v-296" style="opacity: 1;"><rect  id="v-297" rx="20" ry="20" stroke-width="7" pointer-events="visiblePainted" fill="#ffffff" stroke="#f88728" stroke-dasharray="" width="450" height="300" style="fill: rgb(255, 255, 255); stroke: rgb(248, 135, 40);"></rect><text  id="v-298" font-size="33.599999999999994px" xml:space="preserve" y="91.22" font-weight="bold" text-anchor="middle" pointer-events="visible" font-family="Tahoma, Verdana, Helvetica, Arial" fill="#f88728" dominant-baseline="hanging" transform="matrix(1,0,0,1,225,0)" style="fill: rgb(248, 135, 40);"><tspan dy="0" >User Interface</tspan></text><text  id="v-299" font-size="16.799999999999997px" xml:space="preserve" y="132.82" text-anchor="middle" font-family="Tahoma, Verdana, Helvetica, Arial" fill="#f88728" dominant-baseline="hanging" transform="matrix(1,0,0,1,225,0)" style="display: block; fill: rgb(248, 135, 40);"><tspan dy="0" >[Container: Provides the web interface for searching</tspan><tspan dy="1.2em" x="0" >gas prices and storing filling data.]</tspan></text><text  id="v-300" font-size="24px" xml:space="preserve" y="184.77999999999997" text-anchor="middle" font-family="Tahoma, Verdana, Helvetica, Arial" fill="#f88728" dominant-baseline="hanging" transform="matrix(1,0,0,1,225,0)" style="display: block; fill: rgb(248, 135, 40);"><tspan dy="0" >VueJS</tspan></text><g  id="v-301" color="#f88728" transform="matrix(1,0,0,1,222.5,268)" style="fill: rgb(248, 135, 40);" display="none"><g ></g><g ></g><g ></g><g ></g></g><image  id="v-302"></image></g></g><!--z-index:21--><g   id="j_31"  transform="translate(2570,209)" style=""><g  id="v-314" style="opacity: 1;"><path  d="M 0,30 a 225,30 0,0,0 450 0 a 225,30 0,0,0 -450 0 l 0,240 a 225,30 0,0,0 450 0 l 0,-240" id="v-315" stroke-width="7" pointer-events="visiblePainted" fill="#ffffff" stroke="#04b015" stroke-dasharray="" style="fill: rgb(255, 255, 255); stroke: rgb(4, 176, 21);"></path><rect  id="v-316" stroke-width="0" pointer-events="visiblePainted" fill="none" stroke="none" width="450" height="270" x="0" y="30"></rect><text  id="v-317" font-size="33.599999999999994px" xml:space="preserve" y="106.22" font-weight="bold" text-anchor="middle" pointer-events="visible" font-family="Tahoma, Verdana, Helvetica, Arial" fill="#04b015" dominant-baseline="hanging" transform="matrix(1,0,0,1,225,0)" style="fill: rgb(4, 176, 21);"><tspan dy="0" >Data Store &amp; Cache</tspan></text><text  id="v-318" font-size="16.799999999999997px" xml:space="preserve" y="147.82" text-anchor="middle" font-family="Tahoma, Verdana, Helvetica, Arial" fill="#04b015" dominant-baseline="hanging" transform="matrix(1,0,0,1,225,0)" style="display: block; fill: rgb(4, 176, 21);"><tspan dy="0" >[Container: Stores user data and caches gas price</tspan><tspan dy="1.2em" x="0" >data.]</tspan></text><text  id="v-319" font-size="24px" xml:space="preserve" y="199.77999999999997" text-anchor="middle" font-family="Tahoma, Verdana, Helvetica, Arial" fill="#04b015" dominant-baseline="hanging" transform="matrix(1,0,0,1,225,0)" style="display: block; fill: rgb(4, 176, 21);"><tspan dy="0" >PostgreSQL</tspan></text><g  id="v-320" font-weight="normal" text-anchor="middle" color="#04b015" transform="matrix(1,0,0,1,222.5,268)" style="fill: rgb(4, 176, 21);" display="none"><g ></g><g ></g><g ></g><g ></g></g><image  id="v-321"></image></g></g><!--z-index:22--><g   id="j_32"  transform="translate(1780,260)" style=""><g  id="v-328" style="opacity: 1;"><rect  id="v-329" rx="20" ry="20" stroke-width="7" pointer-events="visiblePainted" fill="#ffffff" stroke="#f88728" stroke-dasharray="" width="450" height="300" style="fill: rgb(255, 255, 255); stroke: rgb(248, 135, 40);"></rect><text  id="v-330" font-size="33.599999999999994px" xml:space="preserve" y="91.22" font-weight="bold" text-anchor="middle" pointer-events="visible" font-family="Tahoma, Verdana, Helvetica, Arial" fill="#f88728" dominant-baseline="hanging" transform="matrix(1,0,0,1,225,0)" style="fill: rgb(248, 135, 40);"><tspan dy="0" >Tanker24 Backend</tspan></text><text  id="v-331" font-size="16.799999999999997px" xml:space="preserve" y="132.82" text-anchor="middle" font-family="Tahoma, Verdana, Helvetica, Arial" fill="#f88728" dominant-baseline="hanging" transform="matrix(1,0,0,1,225,0)" style="display: block; fill: rgb(248, 135, 40);"><tspan dy="0" >[Container: Handles business logic, user data, and</tspan><tspan dy="1.2em" x="0" >integration with external services.]</tspan></text><text  id="v-332" font-size="24px" xml:space="preserve" y="184.77999999999997" text-anchor="middle" font-family="Tahoma, Verdana, Helvetica, Arial" fill="#f88728" dominant-baseline="hanging" transform="matrix(1,0,0,1,225,0)" style="display: block; fill: rgb(248, 135, 40);"><tspan dy="0" >Python 3</tspan></text><g  id="v-333" color="#f88728" transform="matrix(1,0,0,1,222.5,268)" style="fill: rgb(248, 135, 40);" display="none"><g ></g><g ></g><g ></g><g ></g></g><image  id="v-334"></image></g></g><!--z-index:23--><g   id="j_33"  transform="translate(2530,790)" style=""><g  id="v-338" style="opacity: 1;"><rect  id="v-339" rx="20" ry="20" stroke-width="7" pointer-events="visiblePainted" fill="#ffffff" stroke="#ed3124" stroke-dasharray="" width="450" height="300" style="fill: rgb(255, 255, 255); stroke: rgb(237, 49, 36);"></rect><text  id="v-340" font-size="33.599999999999994px" xml:space="preserve" y="86.9" font-weight="bold" text-anchor="middle" pointer-events="visible" font-family="Tahoma, Verdana, Helvetica, Arial" fill="#ed3124" dominant-baseline="hanging" transform="matrix(1,0,0,1,225,0)" style="fill: rgb(237, 49, 36);"><tspan dy="0" >Tankerkönig</tspan></text><text  id="v-341" font-size="16.799999999999997px" xml:space="preserve" y="128.5" text-anchor="middle" font-family="Tahoma, Verdana, Helvetica, Arial" fill="#ed3124" dominant-baseline="hanging" transform="matrix(1,0,0,1,225,0)" style="display: block; fill: rgb(237, 49, 36);"><tspan dy="0" >[Software System]</tspan></text><text  id="v-342" font-size="24px" xml:space="preserve" y="160.3" text-anchor="middle" font-family="Tahoma, Verdana, Helvetica, Arial" fill="#ed3124" dominant-baseline="hanging" transform="matrix(1,0,0,1,225,0)" style="display: block; fill: rgb(237, 49, 36);"><tspan dy="0" >Free data provider for gas price data</tspan><tspan dy="1.2em" x="0" >based on the Bundeskartellamt API.</tspan></text><g  id="v-343" color="#ed3124" transform="matrix(1,0,0,1,222.5,268)" style="fill: rgb(237, 49, 36);" display="none"><g ></g><g ></g><g ></g><g ></g></g><image  id="v-344"></image></g></g><!--z-index:24--><g   id="j_34"  transform="translate(1670,790)" style=""><g  id="v-348" style="opacity: 1;"><rect  id="v-349" rx="20" ry="20" stroke-width="7" pointer-events="visiblePainted" fill="#ffffff" stroke="#ed3124" stroke-dasharray="" width="450" height="300" style="fill: rgb(255, 255, 255); stroke: rgb(237, 49, 36);"></rect><text  id="v-350" font-size="33.599999999999994px" xml:space="preserve" y="86.9" font-weight="bold" text-anchor="middle" pointer-events="visible" font-family="Tahoma, Verdana, Helvetica, Arial" fill="#ed3124" dominant-baseline="hanging" transform="matrix(1,0,0,1,225,0)" style="fill: rgb(237, 49, 36);"><tspan dy="0" >OpenStreetMap</tspan></text><text  id="v-351" font-size="16.799999999999997px" xml:space="preserve" y="128.5" text-anchor="middle" font-family="Tahoma, Verdana, Helvetica, Arial" fill="#ed3124" dominant-baseline="hanging" transform="matrix(1,0,0,1,225,0)" style="display: block; fill: rgb(237, 49, 36);"><tspan dy="0" >[Software System]</tspan></text><text  id="v-352" font-size="24px" xml:space="preserve" y="160.3" text-anchor="middle" font-family="Tahoma, Verdana, Helvetica, Arial" fill="#ed3124" dominant-baseline="hanging" transform="matrix(1,0,0,1,225,0)" style="display: block; fill: rgb(237, 49, 36);"><tspan dy="0" >Free map data provider for</tspan><tspan dy="1.2em" x="0" >visualisation.</tspan></text><g  id="v-353" color="#ed3124" transform="matrix(1,0,0,1,222.5,268)" style="fill: rgb(237, 49, 36);" display="none"><g ></g><g ></g><g ></g><g ></g></g><image  id="v-354"></image></g></g><!--z-index:25--><g   id="j_35"  style="opacity: 1;"><path fill="none" cursor="pointer" stroke="transparent" stroke-linecap="round" joint-selector="wrapper" id="v-372" stroke-width="10" stroke-linejoin="round" d="M 600 406.41 L 760 363 C 766.6666666666665 361 773.3333333333333 360 780 360 L 930 360 C 936.6666666666666 360 943 361 949 363 L 990 378.36"></path><path fill="none" pointer-events="none" joint-selector="line" id="v-371" stroke="#444444" stroke-width="4" stroke-linejoin="round" stroke-dasharray="16 16" d="M 600 406.41 L 760 363 C 766.6666666666665 361 773.3333333333333 360 780 360 L 930 360 C 936.6666666666666 360 943 361 949 363 L 990 378.36" marker-end="url(#v-2633353823)"></path><g id="v-361" ><g id="v-362"  label-idx="0" cursor="move" transform="matrix(1,0,0,1,793.5105590820312,346.6000061035156)" style="cursor: default;"><rect joint-selector="rect" id="v-366" fill="#ffffff" rx="3" ry="3" x="-86.69970703125" y="-17.325000762939453" width="173.3994140625" height="28.61250114440918" pointer-events="none"  style="display: block;"></rect><text joint-selector="text" id="v-365" font-size="24px" xml:space="preserve" fill="#444444" text-anchor="middle" pointer-events="none" font-family="Tahoma, Verdana, Helvetica, Arial" font-weight="normal"  style="display: block;"><tspan dy="0.3em" >Store filling data</tspan></text></g><g id="v-363"  label-idx="1" cursor="move" transform="matrix(1,0,0,1,793.5105590820312,377)" style="cursor: default;"><rect joint-selector="rect" id="v-368" fill="#ffffff" rx="3" ry="3" x="-56.68212890625" y="-11.3100004196167" width="113.3642578125" height="20.4375"  pointer-events="none" style="display: block;"></rect><text joint-selector="text" id="v-367" font-size="16.799999999999997px" xml:space="preserve" fill="#444444" text-anchor="middle" pointer-events="none" font-family="Tahoma, Verdana, Helvetica, Arial" font-weight="normal"  style="display: block;"><tspan dy="0.3em" >[UI interaction]</tspan></text></g><g id="v-364"  label-idx="2" cursor="move" transform="matrix(1,0,0,1,783.5105590820312,385.3999938964844)" style="cursor: default;"><rect joint-selector="rect" id="v-370" fill="#ffffff" rx="3" ry="3" x="1.1368683772161603e-13" y="0" width="0" height="0"  display="none"></rect><text joint-selector="text" id="v-369" fill="#000000" font-size="14" text-anchor="middle" text-vertical-anchor="middle" pointer-events="none"></text></g></g></g><!--z-index:26--><g   id="j_36"  style="opacity: 1;"><path fill="none" cursor="pointer" stroke="transparent" stroke-linecap="round" joint-selector="wrapper" id="v-387" stroke-width="10" stroke-linejoin="round" d="M 1440 431.95 L 1600 411 C 1606.6666666666665 410.3333333333333 1613.3333333333333 410 1620 410 L 1780 410"></path><path fill="none" pointer-events="none" joint-selector="line" id="v-386" stroke="#444444" stroke-width="4" stroke-linejoin="round" stroke-dasharray="16 16" d="M 1440 431.95 L 1600 411 C 1606.6666666666665 410.3333333333333 1613.3333333333333 410 1620 410 L 1780 410" marker-end="url(#v-2633353823)"></path><g id="v-376" ><g id="v-377"  label-idx="0" cursor="move" transform="matrix(1,0,0,1,1609.296875,396.8863830566406)" style="cursor: default;"><rect joint-selector="rect" id="v-381" fill="#ffffff" rx="3" ry="3" x="-95.9764175415039" y="-17.325000762939453" width="191.9528350830078" height="28.61250114440918" pointer-events="none"  style="display: block;"></rect><text joint-selector="text" id="v-380" font-size="24px" xml:space="preserve" fill="#444444" text-anchor="middle" pointer-events="none" font-family="Tahoma, Verdana, Helvetica, Arial" font-weight="normal"  style="display: block;"><tspan dy="0.3em" >Request user data</tspan></text></g><g id="v-378"  label-idx="1" cursor="move" transform="matrix(1,0,0,1,1609.296875,427.286376953125)" style="cursor: default;"><rect joint-selector="rect" id="v-383" fill="#ffffff" rx="3" ry="3" x="-26.02587890625" y="-11.3100004196167" width="52.0517578125" height="20.4375"  pointer-events="none" style="display: block;"></rect><text joint-selector="text" id="v-382" font-size="16.799999999999997px" xml:space="preserve" fill="#444444" text-anchor="middle" pointer-events="none" font-family="Tahoma, Verdana, Helvetica, Arial" font-weight="normal"  style="display: block;"><tspan dy="0.3em" >[REST]</tspan></text></g><g id="v-379"  label-idx="2" cursor="move" transform="matrix(1,0,0,1,1599.296875,435.6864013671875)" style="cursor: default;"><rect joint-selector="rect" id="v-385" fill="#ffffff" rx="3" ry="3" x="1.1368683772161603e-13" y="0" width="0" height="0"  display="none"></rect><text joint-selector="text" id="v-384" fill="#000000" font-size="14" text-anchor="middle" text-vertical-anchor="middle" pointer-events="none"></text></g></g></g><!--z-index:27--><g   id="j_37"  style="opacity: 1;"><path fill="none" cursor="pointer" stroke="transparent" stroke-linecap="round" joint-selector="wrapper" id="v-402" stroke-width="10" stroke-linejoin="round" d="M 2230 345.63 L 2390 300 C 2396.6666666666665 298 2403.333333333333 297.66666666666663 2410 299 L 2570 323.68"></path><path fill="none" pointer-events="none" joint-selector="line" id="v-401" stroke="#444444" stroke-width="4" stroke-linejoin="round" stroke-dasharray="16 16" d="M 2230 345.63 L 2390 300 C 2396.6666666666665 298 2403.333333333333 297.66666666666663 2410 299 L 2570 323.68" marker-end="url(#v-2633353823)"></path><g id="v-391" ><g id="v-392"  label-idx="0" cursor="move" transform="matrix(1,0,0,1,2397.6953125,285.0316162109375)" style="cursor: default;"><rect joint-selector="rect" id="v-396" fill="#ffffff" rx="3" ry="3" x="-85.2467269897461" y="-17.325000762939453" width="170.4934539794922" height="28.61250114440918" pointer-events="none"  style="display: block;"></rect><text joint-selector="text" id="v-395" font-size="24px" xml:space="preserve" fill="#444444" text-anchor="middle" pointer-events="none" font-family="Tahoma, Verdana, Helvetica, Arial" font-weight="normal"  style="display: block;"><tspan dy="0.3em" >Reads user data</tspan></text></g><g id="v-393"  label-idx="1" cursor="move" transform="matrix(1,0,0,1,2397.6953125,315.431640625)" style="cursor: default;"><rect joint-selector="rect" id="v-398" fill="#ffffff" rx="3" ry="3" x="-36.739601135253906" y="-11.3100004196167" width="73.47920227050781" height="20.4375"  pointer-events="none" style="display: block;"></rect><text joint-selector="text" id="v-397" font-size="16.799999999999997px" xml:space="preserve" fill="#444444" text-anchor="middle" pointer-events="none" font-family="Tahoma, Verdana, Helvetica, Arial" font-weight="normal"  style="display: block;"><tspan dy="0.3em" >[SOCKET]</tspan></text></g><g id="v-394"  label-idx="2" cursor="move" transform="matrix(1,0,0,1,2387.6953125,323.8316345214844)" style="cursor: default;"><rect joint-selector="rect" id="v-400" fill="#ffffff" rx="3" ry="3" x="1.1368683772161603e-13" y="0" width="0" height="0"  display="none"></rect><text joint-selector="text" id="v-399" fill="#000000" font-size="14" text-anchor="middle" text-vertical-anchor="middle" pointer-events="none"></text></g></g></g><!--z-index:28--><g   id="j_38"  style="opacity: 1;"><path fill="none" cursor="pointer" stroke="transparent" stroke-linecap="round" joint-selector="wrapper" id="v-417" stroke-width="10" stroke-linejoin="round" d="M 2230 452.86 L 2415 488 C 2421.6666666666665 489.33333333333326 2428 488.99999999999994 2434 487 L 2570 438.66"></path><path fill="none" pointer-events="none" joint-selector="line" id="v-416" stroke="#444444" stroke-width="4" stroke-linejoin="round" stroke-dasharray="16 16" d="M 2230 452.86 L 2415 488 C 2421.6666666666665 489.33333333333326 2428 488.99999999999994 2434 487 L 2570 438.66" marker-end="url(#v-2633353823)"></path><g id="v-406" ><g id="v-407"  label-idx="0" cursor="move" transform="matrix(1,0,0,1,2402.85302734375,472.292724609375)" style="cursor: default;"><rect joint-selector="rect" id="v-411" fill="#ffffff" rx="3" ry="3" x="-77.80620574951172" y="-31.725000381469727" width="157.2720184326172" height="57.41250228881836" pointer-events="none"  style="display: block;"></rect><text joint-selector="text" id="v-410" font-size="24px" xml:space="preserve" fill="#444444" text-anchor="middle" pointer-events="none" font-family="Tahoma, Verdana, Helvetica, Arial" font-weight="normal"  style="display: block;"><tspan dy="-0.3em" >Read gas price</tspan><tspan dy="1.2em" x="0" >cache</tspan></text></g><g id="v-408"  label-idx="1" cursor="move" transform="matrix(1,0,0,1,2402.85302734375,517.0927124023438)" style="cursor: default;"><rect joint-selector="rect" id="v-413" fill="#ffffff" rx="3" ry="3" x="-36.739601135253906" y="-11.3100004196167" width="73.47920227050781" height="20.4375"  pointer-events="none" style="display: block;"></rect><text joint-selector="text" id="v-412" font-size="16.799999999999997px" xml:space="preserve" fill="#444444" text-anchor="middle" pointer-events="none" font-family="Tahoma, Verdana, Helvetica, Arial" font-weight="normal"  style="display: block;"><tspan dy="0.3em" >[SOCKET]</tspan></text></g><g id="v-409"  label-idx="2" cursor="move" transform="matrix(1,0,0,1,2392.85302734375,525.4927368164062)" style="cursor: default;"><rect joint-selector="rect" id="v-415" fill="#ffffff" rx="3" ry="3" x="1.1368683772161603e-13" y="0" width="0" height="0"  display="none"></rect><text joint-selector="text" id="v-414" fill="#000000" font-size="14" text-anchor="middle" text-vertical-anchor="middle" pointer-events="none"></text></g></g></g><!--z-index:29--><g   id="j_39"  style="opacity: 1;"><path fill="none" cursor="pointer" stroke="transparent" stroke-linecap="round" joint-selector="wrapper" id="v-432" stroke-width="10" stroke-linejoin="round" d="M 2228.33 560 L 2332 629 C 2337.333333333333 633 2342.6666666666665 637 2348 641 L 2550.9 790"></path><path fill="none" pointer-events="none" joint-selector="line" id="v-431" stroke="#444444" stroke-width="4" stroke-linejoin="round" stroke-dasharray="16 16" d="M 2228.33 560 L 2332 629 C 2337.333333333333 633 2342.6666666666665 637 2348 641 L 2550.9 790" marker-end="url(#v-2633353823)"></path><g id="v-421" ><g id="v-422"  label-idx="0" cursor="move" transform="matrix(1,0,0,1,2391.2021484375,659.3256225585938)" style="cursor: default;"><rect joint-selector="rect" id="v-426" fill="#ffffff" rx="3" ry="3" x="-81.95757293701172" y="-31.725000381469727" width="165.44424438476562" height="57.41250228881836" pointer-events="none"  style="display: block;"></rect><text joint-selector="text" id="v-425" font-size="24px" xml:space="preserve" fill="#444444" text-anchor="middle" pointer-events="none" font-family="Tahoma, Verdana, Helvetica, Arial" font-weight="normal"  style="display: block;"><tspan dy="-0.3em" >Get current gas</tspan><tspan dy="1.2em" x="0" >prices</tspan></text></g><g id="v-423"  label-idx="1" cursor="move" transform="matrix(1,0,0,1,2391.2021484375,704.1256713867188)" style="cursor: default;"><rect joint-selector="rect" id="v-428" fill="#ffffff" rx="3" ry="3" x="-26.02587890625" y="-11.3100004196167" width="52.0517578125" height="20.4375"  pointer-events="none" style="display: block;"></rect><text joint-selector="text" id="v-427" font-size="16.799999999999997px" xml:space="preserve" fill="#444444" text-anchor="middle" pointer-events="none" font-family="Tahoma, Verdana, Helvetica, Arial" font-weight="normal"  style="display: block;"><tspan dy="0.3em" >[REST]</tspan></text></g><g id="v-424"  label-idx="2" cursor="move" transform="matrix(1,0,0,1,2381.2021484375,712.525634765625)" style="cursor: default;"><rect joint-selector="rect" id="v-430" fill="#ffffff" rx="3" ry="3" x="1.1368683772161603e-13" y="0" width="0" height="0"  display="none"></rect><text joint-selector="text" id="v-429" fill="#000000" font-size="14" text-anchor="middle" text-vertical-anchor="middle" pointer-events="none"></text></g></g></g><!--z-index:30--><g   id="j_40"  style="opacity: 1;"><path fill="none" cursor="pointer" stroke="transparent" stroke-linecap="round" joint-selector="wrapper" id="v-444" stroke-width="10" stroke-linejoin="round" d="M 1421.33 611 L 1522 684 C 1527.3333333333333 688 1532.6666666666665 692 1538 696 L 1676 790"></path><path fill="none" pointer-events="none" joint-selector="line" id="v-443" stroke="#444444" stroke-width="4" stroke-linejoin="round" stroke-dasharray="16 16" d="M 1421.33 611 L 1522 684 C 1527.3333333333333 688 1532.6666666666665 692 1538 696 L 1676 790" marker-end="url(#v-2633353823)"></path><g id="v-433" ><g id="v-434"  label-idx="0" cursor="move" transform="matrix(1,0,0,1,1547.347900390625,688.9674072265625)" style="cursor: default;"><rect joint-selector="rect" id="v-438" fill="#ffffff" rx="3" ry="3" x="-45.09023666381836" y="-17.325000762939453" width="91.21934509277344" height="28.61250114440918" pointer-events="none"  style="display: block;"></rect><text joint-selector="text" id="v-437" font-size="24px" xml:space="preserve" fill="#444444" text-anchor="middle" pointer-events="none" font-family="Tahoma, Verdana, Helvetica, Arial" font-weight="normal"  style="display: block;"><tspan dy="0.3em" >Get map</tspan></text></g><g id="v-435"  label-idx="1" cursor="move" transform="matrix(1,0,0,1,1547.347900390625,719.3673706054688)" style="cursor: default;"><rect joint-selector="rect" id="v-440" fill="#ffffff" rx="3" ry="3" x="-26.02587890625" y="-11.3100004196167" width="52.0517578125" height="20.4375"  pointer-events="none" style="display: block;"></rect><text joint-selector="text" id="v-439" font-size="16.799999999999997px" xml:space="preserve" fill="#444444" text-anchor="middle" pointer-events="none" font-family="Tahoma, Verdana, Helvetica, Arial" font-weight="normal"  style="display: block;"><tspan dy="0.3em" >[REST]</tspan></text></g><g id="v-436"  label-idx="2" cursor="move" transform="matrix(1,0,0,1,1537.347900390625,727.7673950195312)" style="cursor: default;"><rect joint-selector="rect" id="v-442" fill="#ffffff" rx="3" ry="3" x="1.1368683772161603e-13" y="0" width="0" height="0"  display="none"></rect><text joint-selector="text" id="v-441" fill="#000000" font-size="14" text-anchor="middle" text-vertical-anchor="middle" pointer-events="none"></text></g></g></g><!--z-index:31--><g   id="j_41"  style="opacity: 1;"><path fill="none" cursor="pointer" stroke="transparent" stroke-linecap="round" joint-selector="wrapper" id="v-462" stroke-width="10" stroke-linejoin="round" d="M 600 510.19 L 760 550 C 766.6666666666665 551.3333333333333 773.3333333333333 552 780 552 L 930 552 C 936.6666666666666 552 943 551 949 549 L 990 535.45"></path><path fill="none" pointer-events="none" joint-selector="line" id="v-461" stroke="#444444" stroke-width="4" stroke-linejoin="round" stroke-dasharray="16 16" d="M 600 510.19 L 760 550 C 766.6666666666665 551.3333333333333 773.3333333333333 552 780 552 L 930 552 C 936.6666666666666 552 943 551 949 549 L 990 535.45" marker-end="url(#v-2633353823)"></path><g id="v-451" ><g id="v-452"  label-idx="0" cursor="move" transform="matrix(1,0,0,1,793.7432250976562,538.5999755859375)" style="cursor: default;"><rect joint-selector="rect" id="v-456" fill="#ffffff" rx="3" ry="3" x="-99.233642578125" y="-31.725000381469727" width="200.00537109375" height="57.41250228881836" pointer-events="none"  style="display: block;"></rect><text joint-selector="text" id="v-455" font-size="24px" xml:space="preserve" fill="#444444" text-anchor="middle" pointer-events="none" font-family="Tahoma, Verdana, Helvetica, Arial" font-weight="normal"  style="display: block;"><tspan dy="-0.3em" >Request gas prices</tspan><tspan dy="1.2em" x="0" >in area</tspan></text></g><g id="v-453"  label-idx="1" cursor="move" transform="matrix(1,0,0,1,793.7432250976562,583.4000244140625)" style="cursor: default;"><rect joint-selector="rect" id="v-458" fill="#ffffff" rx="3" ry="3" x="-56.68212890625" y="-11.3100004196167" width="113.3642578125" height="20.4375"  pointer-events="none" style="display: block;"></rect><text joint-selector="text" id="v-457" font-size="16.799999999999997px" xml:space="preserve" fill="#444444" text-anchor="middle" pointer-events="none" font-family="Tahoma, Verdana, Helvetica, Arial" font-weight="normal"  style="display: block;"><tspan dy="0.3em" >[UI interaction]</tspan></text></g><g id="v-454"  label-idx="2" cursor="move" transform="matrix(1,0,0,1,783.7432250976562,591.7999877929688)" style="cursor: default;"><rect joint-selector="rect" id="v-460" fill="#ffffff" rx="3" ry="3" x="1.1368683772161603e-13" y="0" width="0" height="0"  display="none"></rect><text joint-selector="text" id="v-459" fill="#000000" font-size="14" text-anchor="middle" text-vertical-anchor="middle" pointer-events="none"></text></g></g></g><!--z-index:32--></g><g  style="user-select: none;"></g><g ></g><g  display="none"></g></g></svg>