<svg xmlns="http://www.w3.org/2000/svg" xmlns:xlink="http://www.w3.org/1999/xlink" version="1.1" style="background: #ffffff" viewBox="0 0 3270 1268"><style id="v-3" type="text/css">        .joint-element .scalable * {            vector-effect: non-scaling-stroke;        }    </style><defs joint-selector="defs"><marker id="v-2633353823" orient="auto" overflow="visible" markerUnits="userSpaceOnUse"><path id="v-99" stroke="#444444" fill="#444444" transform="rotate(180)" d="M 40 -20 0 0 40 20 Z"></path></marker></defs><g joint-selector="layers"  transform="matrix(1,0,0,1,0,0)"><g  style="pointer-events: none;"></g><g ></g><g  style="user-select: none;"><!--z-index:1--><!--z-index:2--><!--z-index:3--><!--z-index:4--><!--z-index:5--><!--z-index:6--><!--z-index:7--><!--z-index:8--><!--z-index:9--><!--z-index:10--><!--z-index:11--><!--z-index:12--><!--z-index:13--><!--z-index:14--><!--z-index:15--><!--z-index:16--><g   id="j_2"  transform="translate(20,1224)"><g id="v-6"><text  id="v-7" font-size="24px" xml:space="preserve" y="0.8em" font-weight="normal" text-anchor="start" fill="#444444" pointer-events="none" display="block" font-family="Tahoma, Verdana, Helvetica, Arial"><tspan dy="0" >Freitag, 12. Juni 2026 um 17:49 Mitteleuropäische Sommerzeit</tspan></text></g></g><!--z-index:17--><g   id="j_1"  transform="translate(20,1178)"><g id="v-4"><text  id="v-5" font-size="36px" xml:space="preserve" y="0.8em" font-weight="normal" text-anchor="start" fill="#444444" pointer-events="none" display="block" font-family="Tahoma, Verdana, Helvetica, Arial"><tspan dy="0" >Container View: Tanker24</tspan></text></g></g><!--z-index:18--><g   id="j_3"  transform="translate(200,262)" style=""><g  id="v-8" style="opacity: 1;"><rect  x="0" y="160" width="400" height="240" rx="70" id="v-10" stroke-width="7" pointer-events="visiblePainted" fill="#ffffff" stroke="#0773af" stroke-dasharray="" style="fill: rgb(255, 255, 255); stroke: rgb(7, 115, 175);"></rect><circle  cx="200" cy="88.88888888888889" r="88.88888888888889" id="v-9" stroke-width="7" pointer-events="visiblePainted" fill="#ffffff" stroke="#0773af" stroke-dasharray="" style="fill: rgb(255, 255, 255); stroke: rgb(7, 115, 175);"></circle><line  x1="80" y1="266.6666666666667" x2="80" y2="400" id="v-16" stroke="#0773af" stroke-width="1" stroke-dasharray="" style="stroke: rgb(7, 115, 175);"></line><line  x1="320" y1="266.6666666666667" x2="320" y2="400" id="v-17" stroke="#0773af" stroke-width="1" stroke-dasharray="" style="stroke: rgb(7, 115, 175);"></line><text  id="v-11" font-size="33.599999999999994px" xml:space="preserve" y="231.3" font-weight="bold" text-anchor="middle" pointer-events="visible" font-family="Tahoma, Verdana, Helvetica, Arial" fill="#0773af" dominant-baseline="hanging" transform="matrix(1,0,0,1,200,0)" style="fill: rgb(7, 115, 175);"><tspan dy="0" >User</tspan></text><text  id="v-12" font-size="16.799999999999997px" xml:space="preserve" y="272.9" text-anchor="middle" font-family="Tahoma, Verdana, Helvetica, Arial" fill="#0773af" dominant-baseline="hanging" transform="matrix(1,0,0,1,200,0)" style="display: block; fill: rgb(7, 115, 175);"><tspan dy="0" >[Person]</tspan></text><text  id="v-13" font-size="24px" xml:space="preserve" y="304.7" text-anchor="middle" font-family="Tahoma, Verdana, Helvetica, Arial" fill="#0773af" dominant-baseline="hanging" transform="matrix(1,0,0,1,200,0)" style="display: block; fill: rgb(7, 115, 175);"><tspan dy="0" >Car drivers</tspan></text><g  id="v-14" font-weight="normal" text-anchor="middle" color="#0773af" transform="matrix(1,0,0,1,197.5,368)" style="fill: rgb(7, 115, 175);" display="none"><g ></g><g ></g><g ></g><g ></g></g><image  id="v-15"></image></g></g><!--z-index:19--><g   id="j_5"  transform="translate(940,160)" style="; opacity: 1;"><g id="v-28"><rect  id="v-29" width="2130" height="581" rx="20" ry="20" stroke-width="5" pointer-events="none" stroke="#f88728" fill="#ffffff" opacity="0.6" stroke-dasharray=""></rect><text  id="v-30" font-size="33.599999999999994px" xml:space="preserve" y="542" font-weight="bold" text-anchor="start" pointer-events="visible" font-family="Tahoma, Verdana, Helvetica, Arial" fill="#f88728" transform="matrix(1,0,0,1,15,0)"><tspan dy="0" >Tanker24</tspan></text><text  id="v-31" font-size="16.799999999999997px" xml:space="preserve" y="566" font-weight="normal" text-anchor="start" pointer-events="visible" font-family="Tahoma, Verdana, Helvetica, Arial" fill="#f88728" transform="matrix(1,0,0,1,15,0)"><tspan dy="0" >[Software System]</tspan></text><image  id="v-32" pointer-events="visible"></image></g></g><!--z-index:20--><g   id="j_4"  transform="translate(990,312)" style=""><g  id="v-21" style="opacity: 1;"><rect  id="v-22" rx="20" ry="20" stroke-width="7" pointer-events="visiblePainted" fill="#ffffff" stroke="#f88728" stroke-dasharray="" width="450" height="300" style="fill: rgb(255, 255, 255); stroke: rgb(248, 135, 40);"></rect><text  id="v-23" font-size="33.599999999999994px" xml:space="preserve" y="91.22" font-weight="bold" text-anchor="middle" pointer-events="visible" font-family="Tahoma, Verdana, Helvetica, Arial" fill="#f88728" dominant-baseline="hanging" transform="matrix(1,0,0,1,225,0)" style="fill: rgb(248, 135, 40);"><tspan dy="0" >User Interface</tspan></text><text  id="v-24" font-size="16.799999999999997px" xml:space="preserve" y="132.82" text-anchor="middle" font-family="Tahoma, Verdana, Helvetica, Arial" fill="#f88728" dominant-baseline="hanging" transform="matrix(1,0,0,1,225,0)" style="display: block; fill: rgb(248, 135, 40);"><tspan dy="0" >[Container: Provides the web interface for searching</tspan><tspan dy="1.2em" x="0" >gas prices and storing filling data.]</tspan></text><text  id="v-25" font-size="24px" xml:space="preserve" y="184.77999999999997" text-anchor="middle" font-family="Tahoma, Verdana, Helvetica, Arial" fill="#f88728" dominant-baseline="hanging" transform="matrix(1,0,0,1,225,0)" style="display: block; fill: rgb(248, 135, 40);"><tspan dy="0" >SvelteKit</tspan></text><g  id="v-26" color="#f88728" transform="matrix(1,0,0,1,222.5,268)" style="fill: rgb(248, 135, 40);" display="none"><g ></g><g ></g><g ></g><g ></g></g><image  id="v-27"></image></g></g><!--z-index:21--><g   id="j_6"  transform="translate(2570,210)" style=""><g  id="v-39" style="opacity: 1;"><path  d="M 0,30 a 225,30 0,0,0 450 0 a 225,30 0,0,0 -450 0 l 0,240 a 225,30 0,0,0 450 0 l 0,-240" id="v-40" stroke-width="7" pointer-events="visiblePainted" fill="#ffffff" stroke="#04b015" stroke-dasharray="" style="fill: rgb(255, 255, 255); stroke: rgb(4, 176, 21);"></path><rect  id="v-41" stroke-width="0" pointer-events="visiblePainted" fill="none" stroke="none" width="450" height="270" x="0" y="30"></rect><text  id="v-42" font-size="33.599999999999994px" xml:space="preserve" y="106.22" font-weight="bold" text-anchor="middle" pointer-events="visible" font-family="Tahoma, Verdana, Helvetica, Arial" fill="#04b015" dominant-baseline="hanging" transform="matrix(1,0,0,1,225,0)" style="fill: rgb(4, 176, 21);"><tspan dy="0" >Data Store &amp; Cache</tspan></text><text  id="v-43" font-size="16.799999999999997px" xml:space="preserve" y="147.82" text-anchor="middle" font-family="Tahoma, Verdana, Helvetica, Arial" fill="#04b015" dominant-baseline="hanging" transform="matrix(1,0,0,1,225,0)" style="display: block; fill: rgb(4, 176, 21);"><tspan dy="0" >[Container: Stores user data and caches gas price</tspan><tspan dy="1.2em" x="0" >data.]</tspan></text><text  id="v-44" font-size="24px" xml:space="preserve" y="199.77999999999997" text-anchor="middle" font-family="Tahoma, Verdana, Helvetica, Arial" fill="#04b015" dominant-baseline="hanging" transform="matrix(1,0,0,1,225,0)" style="display: block; fill: rgb(4, 176, 21);"><tspan dy="0" >PostgreSQL</tspan></text><g  id="v-45" font-weight="normal" text-anchor="middle" color="#04b015" transform="matrix(1,0,0,1,222.5,268)" style="fill: rgb(4, 176, 21);" display="none"><g ></g><g ></g><g ></g><g ></g></g><image  id="v-46"></image></g></g><!--z-index:22--><g   id="j_7"  transform="translate(1780,261)" style=""><g  id="v-53" style="opacity: 1;"><rect  id="v-54" rx="20" ry="20" stroke-width="7" pointer-events="visiblePainted" fill="#ffffff" stroke="#f88728" stroke-dasharray="" width="450" height="300" style="fill: rgb(255, 255, 255); stroke: rgb(248, 135, 40);"></rect><text  id="v-55" font-size="33.599999999999994px" xml:space="preserve" y="91.22" font-weight="bold" text-anchor="middle" pointer-events="visible" font-family="Tahoma, Verdana, Helvetica, Arial" fill="#f88728" dominant-baseline="hanging" transform="matrix(1,0,0,1,225,0)" style="fill: rgb(248, 135, 40);"><tspan dy="0" >Tanker24 Backend</tspan></text><text  id="v-56" font-size="16.799999999999997px" xml:space="preserve" y="132.82" text-anchor="middle" font-family="Tahoma, Verdana, Helvetica, Arial" fill="#f88728" dominant-baseline="hanging" transform="matrix(1,0,0,1,225,0)" style="display: block; fill: rgb(248, 135, 40);"><tspan dy="0" >[Container: Handles business logic, user data, and</tspan><tspan dy="1.2em" x="0" >integration with external services.]</tspan></text><text  id="v-57" font-size="24px" xml:space="preserve" y="184.77999999999997" text-anchor="middle" font-family="Tahoma, Verdana, Helvetica, Arial" fill="#f88728" dominant-baseline="hanging" transform="matrix(1,0,0,1,225,0)" style="display: block; fill: rgb(248, 135, 40);"><tspan dy="0" >Python 3</tspan></text><g  id="v-58" color="#f88728" transform="matrix(1,0,0,1,222.5,268)" style="fill: rgb(248, 135, 40);" display="none"><g ></g><g ></g><g ></g><g ></g></g><image  id="v-59"></image></g></g><!--z-index:23--><g   id="j_8"  transform="translate(2570,728)" style=""><g  id="v-63" style="opacity: 1;"><rect  id="v-64" rx="20" ry="20" stroke-width="7" pointer-events="visiblePainted" fill="#ffffff" stroke="#ed3124" stroke-dasharray="" width="450" height="300" style="fill: rgb(255, 255, 255); stroke: rgb(237, 49, 36);"></rect><text  id="v-65" font-size="33.599999999999994px" xml:space="preserve" y="86.9" font-weight="bold" text-anchor="middle" pointer-events="visible" font-family="Tahoma, Verdana, Helvetica, Arial" fill="#ed3124" dominant-baseline="hanging" transform="matrix(1,0,0,1,225,0)" style="fill: rgb(237, 49, 36);"><tspan dy="0" >Tankerkönig</tspan></text><text  id="v-66" font-size="16.799999999999997px" xml:space="preserve" y="128.5" text-anchor="middle" font-family="Tahoma, Verdana, Helvetica, Arial" fill="#ed3124" dominant-baseline="hanging" transform="matrix(1,0,0,1,225,0)" style="display: block; fill: rgb(237, 49, 36);"><tspan dy="0" >[Software System]</tspan></text><text  id="v-67" font-size="24px" xml:space="preserve" y="160.3" text-anchor="middle" font-family="Tahoma, Verdana, Helvetica, Arial" fill="#ed3124" dominant-baseline="hanging" transform="matrix(1,0,0,1,225,0)" style="display: block; fill: rgb(237, 49, 36);"><tspan dy="0" >Free data provider for gas price data</tspan><tspan dy="1.2em" x="0" >based on the Bundeskartellamt API.</tspan></text><g  id="v-68" color="#ed3124" transform="matrix(1,0,0,1,222.5,268)" style="fill: rgb(237, 49, 36);" display="none"><g ></g><g ></g><g ></g><g ></g></g><image  id="v-69"></image></g></g><!--z-index:24--><g   id="j_9"  transform="translate(1780,728)" style=""><g  id="v-73" style="opacity: 1;"><rect  id="v-74" rx="20" ry="20" stroke-width="7" pointer-events="visiblePainted" fill="#ffffff" stroke="#ed3124" stroke-dasharray="" width="450" height="300" style="fill: rgb(255, 255, 255); stroke: rgb(237, 49, 36);"></rect><text  id="v-75" font-size="33.599999999999994px" xml:space="preserve" y="86.9" font-weight="bold" text-anchor="middle" pointer-events="visible" font-family="Tahoma, Verdana, Helvetica, Arial" fill="#ed3124" dominant-baseline="hanging" transform="matrix(1,0,0,1,225,0)" style="fill: rgb(237, 49, 36);"><tspan dy="0" >OpenStreetMap</tspan></text><text  id="v-76" font-size="16.799999999999997px" xml:space="preserve" y="128.5" text-anchor="middle" font-family="Tahoma, Verdana, Helvetica, Arial" fill="#ed3124" dominant-baseline="hanging" transform="matrix(1,0,0,1,225,0)" style="display: block; fill: rgb(237, 49, 36);"><tspan dy="0" >[Software System]</tspan></text><text  id="v-77" font-size="24px" xml:space="preserve" y="160.3" text-anchor="middle" font-family="Tahoma, Verdana, Helvetica, Arial" fill="#ed3124" dominant-baseline="hanging" transform="matrix(1,0,0,1,225,0)" style="display: block; fill: rgb(237, 49, 36);"><tspan dy="0" >Free map data provider for</tspan><tspan dy="1.2em" x="0" >visualisation.</tspan></text><g  id="v-78" color="#ed3124" transform="matrix(1,0,0,1,222.5,268)" style="fill: rgb(237, 49, 36);" display="none"><g ></g><g ></g><g ></g><g ></g></g><image  id="v-79"></image></g></g><!--z-index:25--><g   id="j_10"  style="opacity: 1;"><path fill="none" cursor="pointer" stroke="transparent" stroke-linecap="round" joint-selector="wrapper" id="v-97" stroke-width="10" stroke-linejoin="round" d="M 600 407.41 L 760 364 C 766.6666666666665 362 773.3333333333333 361 780 361 L 930 361 C 936.6666666666666 361 943 362 949 364 L 990 379.36"></path><path fill="none" pointer-events="none" joint-selector="line" id="v-96" stroke="#444444" stroke-width="4" stroke-linejoin="round" stroke-dasharray="16 16" d="M 600 407.41 L 760 364 C 766.6666666666665 362 773.3333333333333 361 780 361 L 930 361 C 936.6666666666666 361 943 362 949 364 L 990 379.36" marker-end="url(#v-2633353823)"></path><g id="v-86" ><g id="v-87"  label-idx="0" cursor="move" transform="matrix(1,0,0,1,793.5105590820312,347.6000061035156)" style="cursor: default;"><rect joint-selector="rect" id="v-91" fill="#ffffff" rx="3" ry="3" x="-86.60891723632812" y="-16.95237922668457" width="173.21783447265625" height="30.190471649169922" pointer-events="none"  style="display: block;"></rect><text joint-selector="text" id="v-90" font-size="24px" xml:space="preserve" fill="#444444" text-anchor="middle" pointer-events="none" font-family="Tahoma, Verdana, Helvetica, Arial" font-weight="normal"  style="display: block;"><tspan dy="0.3em" >Store filling data</tspan></text></g><g id="v-88"  label-idx="1" cursor="move" transform="matrix(1,0,0,1,793.5105590820312,378)" style="cursor: default;"><rect joint-selector="rect" id="v-93" fill="#ffffff" rx="3" ry="3" x="-56.63072204589844" y="-13.074283599853516" width="115.8866195678711" height="24.15237808227539"  pointer-events="none" style="display: block;"></rect><text joint-selector="text" id="v-92" font-size="16.799999999999997px" xml:space="preserve" fill="#444444" text-anchor="middle" pointer-events="none" font-family="Tahoma, Verdana, Helvetica, Arial" font-weight="normal"  style="display: block;"><tspan dy="0.3em" >[UI interaction]</tspan></text></g><g id="v-89"  label-idx="2" cursor="move" transform="matrix(1,0,0,1,783.5105590820312,386.3999938964844)" style="cursor: default;"><rect joint-selector="rect" id="v-95" fill="#ffffff" rx="3" ry="3" x="-2.220446049250313e-16" y="0" width="0" height="0"  display="none"></rect><text joint-selector="text" id="v-94" fill="#000000" font-size="14" text-anchor="middle" text-vertical-anchor="middle" pointer-events="none"></text></g></g></g><!--z-index:26--><g   id="j_11"  style="opacity: 1;"><path fill="none" cursor="pointer" stroke="transparent" stroke-linecap="round" joint-selector="wrapper" id="v-114" stroke-width="10" stroke-linejoin="round" d="M 1440 432.95 L 1600 412 C 1606.6666666666665 411.3333333333333 1613.3333333333333 411 1620 411 L 1780 411"></path><path fill="none" pointer-events="none" joint-selector="line" id="v-113" stroke="#444444" stroke-width="4" stroke-linejoin="round" stroke-dasharray="16 16" d="M 1440 432.95 L 1600 412 C 1606.6666666666665 411.3333333333333 1613.3333333333333 411 1620 411 L 1780 411" marker-end="url(#v-2633353823)"></path><g id="v-103" ><g id="v-104"  label-idx="0" cursor="move" transform="matrix(1,0,0,1,1609.296875,397.8863830566406)" style="cursor: default;"><rect joint-selector="rect" id="v-108" fill="#ffffff" rx="3" ry="3" x="-95.87833404541016" y="-16.95237922668457" width="191.7566680908203" height="30.190471649169922" pointer-events="none"  style="display: block;"></rect><text joint-selector="text" id="v-107" font-size="24px" xml:space="preserve" fill="#444444" text-anchor="middle" pointer-events="none" font-family="Tahoma, Verdana, Helvetica, Arial" font-weight="normal"  style="display: block;"><tspan dy="0.3em" >Request user data</tspan></text></g><g id="v-105"  label-idx="1" cursor="move" transform="matrix(1,0,0,1,1609.296875,428.286376953125)" style="cursor: default;"><rect joint-selector="rect" id="v-110" fill="#ffffff" rx="3" ry="3" x="-26.015695571899414" y="-13.074283599853516" width="54.63634490966797" height="24.15237808227539"  pointer-events="none" style="display: block;"></rect><text joint-selector="text" id="v-109" font-size="16.799999999999997px" xml:space="preserve" fill="#444444" text-anchor="middle" pointer-events="none" font-family="Tahoma, Verdana, Helvetica, Arial" font-weight="normal"  style="display: block;"><tspan dy="0.3em" >[REST]</tspan></text></g><g id="v-106"  label-idx="2" cursor="move" transform="matrix(1,0,0,1,1599.296875,436.6864013671875)" style="cursor: default;"><rect joint-selector="rect" id="v-112" fill="#ffffff" rx="3" ry="3" x="-2.220446049250313e-16" y="0" width="0" height="0"  display="none"></rect><text joint-selector="text" id="v-111" fill="#000000" font-size="14" text-anchor="middle" text-vertical-anchor="middle" pointer-events="none"></text></g></g></g><!--z-index:27--><g   id="j_12"  style="opacity: 1;"><path fill="none" cursor="pointer" stroke="transparent" stroke-linecap="round" joint-selector="wrapper" id="v-129" stroke-width="10" stroke-linejoin="round" d="M 2230 346.63 L 2390 301 C 2396.6666666666665 299 2403.333333333333 298.66666666666663 2410 300 L 2570 324.68"></path><path fill="none" pointer-events="none" joint-selector="line" id="v-128" stroke="#444444" stroke-width="4" stroke-linejoin="round" stroke-dasharray="16 16" d="M 2230 346.63 L 2390 301 C 2396.6666666666665 299 2403.333333333333 298.66666666666663 2410 300 L 2570 324.68" marker-end="url(#v-2633353823)"></path><g id="v-118" ><g id="v-119"  label-idx="0" cursor="move" transform="matrix(1,0,0,1,2397.6953125,286.0316162109375)" style="cursor: default;"><rect joint-selector="rect" id="v-123" fill="#ffffff" rx="3" ry="3" x="-85.42960357666016" y="-31.35237693786621" width="174.2914276123047" height="58.99047088623047" pointer-events="none"  style="display: block;"></rect><text joint-selector="text" id="v-122" font-size="24px" xml:space="preserve" fill="#444444" text-anchor="middle" pointer-events="none" font-family="Tahoma, Verdana, Helvetica, Arial" font-weight="normal"  style="display: block;"><tspan dy="-0.3em" >Read/Write user</tspan><tspan dy="1.2em" x="0" >data</tspan></text></g><g id="v-120"  label-idx="1" cursor="move" transform="matrix(1,0,0,1,2397.6953125,330.8316345214844)" style="cursor: default;"><rect joint-selector="rect" id="v-125" fill="#ffffff" rx="3" ry="3" x="-36.723880767822266" y="-13.074283599853516" width="76.04487609863281" height="24.15237808227539"  pointer-events="none" style="display: block;"></rect><text joint-selector="text" id="v-124" font-size="16.799999999999997px" xml:space="preserve" fill="#444444" text-anchor="middle" pointer-events="none" font-family="Tahoma, Verdana, Helvetica, Arial" font-weight="normal"  style="display: block;"><tspan dy="0.3em" >[SOCKET]</tspan></text></g><g id="v-121"  label-idx="2" cursor="move" transform="matrix(1,0,0,1,2387.6953125,339.23162841796875)" style="cursor: default;"><rect joint-selector="rect" id="v-127" fill="#ffffff" rx="3" ry="3" x="-2.220446049250313e-16" y="0" width="0" height="0"  display="none"></rect><text joint-selector="text" id="v-126" fill="#000000" font-size="14" text-anchor="middle" text-vertical-anchor="middle" pointer-events="none"></text></g></g></g><!--z-index:28--><g   id="j_13"  style="opacity: 1;"><path fill="none" cursor="pointer" stroke="transparent" stroke-linecap="round" joint-selector="wrapper" id="v-144" stroke-width="10" stroke-linejoin="round" d="M 2230 414.99 L 2390 418 C 2396.6666666666665 417.99999999999994 2403.333333333333 417.66666666666663 2410 417 L 2570 393.04"></path><path fill="none" pointer-events="none" joint-selector="line" id="v-143" stroke="#444444" stroke-width="4" stroke-linejoin="round" stroke-dasharray="16 16" d="M 2230 414.99 L 2390 418 C 2396.6666666666665 417.99999999999994 2403.333333333333 417.66666666666663 2410 417 L 2570 393.04" marker-end="url(#v-2633353823)"></path><g id="v-133" ><g id="v-134"  label-idx="0" cursor="move" transform="matrix(1,0,0,1,2400.8984375,404.3030700683594)" style="cursor: default;"><rect joint-selector="rect" id="v-138" fill="#ffffff" rx="3" ry="3" x="-81.04254913330078" y="-31.35237693786621" width="163.44117736816406" height="58.99047088623047" pointer-events="none"  style="display: block;"></rect><text joint-selector="text" id="v-137" font-size="24px" xml:space="preserve" fill="#444444" text-anchor="middle" pointer-events="none" font-family="Tahoma, Verdana, Helvetica, Arial" font-weight="normal"  style="display: block;"><tspan dy="-0.3em" >Read/Write gas</tspan><tspan dy="1.2em" x="0" >price cache</tspan></text></g><g id="v-135"  label-idx="1" cursor="move" transform="matrix(1,0,0,1,2400.8984375,449.1030578613281)" style="cursor: default;"><rect joint-selector="rect" id="v-140" fill="#ffffff" rx="3" ry="3" x="-36.723880767822266" y="-13.074283599853516" width="76.04487609863281" height="24.15237808227539"  pointer-events="none" style="display: block;"></rect><text joint-selector="text" id="v-139" font-size="16.799999999999997px" xml:space="preserve" fill="#444444" text-anchor="middle" pointer-events="none" font-family="Tahoma, Verdana, Helvetica, Arial" font-weight="normal"  style="display: block;"><tspan dy="0.3em" >[SOCKET]</tspan></text></g><g id="v-136"  label-idx="2" cursor="move" transform="matrix(1,0,0,1,2390.8984375,457.5030517578125)" style="cursor: default;"><rect joint-selector="rect" id="v-142" fill="#ffffff" rx="3" ry="3" x="-2.220446049250313e-16" y="0" width="0" height="0"  display="none"></rect><text joint-selector="text" id="v-141" fill="#000000" font-size="14" text-anchor="middle" text-vertical-anchor="middle" pointer-events="none"></text></g></g></g><!--z-index:29--><g   id="j_14"  style="opacity: 1;"><path fill="none" cursor="pointer" stroke="transparent" stroke-linecap="round" joint-selector="wrapper" id="v-159" stroke-width="10" stroke-linejoin="round" d="M 2230 489.04 L 2391 545 C 2397 547 2402.6666666666665 550 2408 554 L 2615.45 728" style="stroke-width: 10px;"></path><path fill="none" pointer-events="none" joint-selector="line" id="v-158" stroke="#444444" stroke-width="4" stroke-linejoin="round" stroke-dasharray="16 16" d="M 2230 489.04 L 2391 545 C 2397 547 2402.6666666666665 550 2408 554 L 2615.45 728" marker-end="url(#v-2633353823)"></path><g id="v-148" ><g id="v-149"  label-idx="0" cursor="move" transform="matrix(1,0,0,1,2439.029541015625,566.6262817382812)" style="cursor: default;"><rect joint-selector="rect" id="v-153" fill="#ffffff" rx="3" ry="3" x="-81.89165496826172" y="-31.35237693786621" width="165.11497497558594" height="58.99047088623047" pointer-events="none"  style="display: block;"></rect><text joint-selector="text" id="v-152" font-size="24px" xml:space="preserve" fill="#444444" text-anchor="middle" pointer-events="none" font-family="Tahoma, Verdana, Helvetica, Arial" font-weight="normal"  style="display: block;"><tspan dy="-0.3em" >Get current gas</tspan><tspan dy="1.2em" x="0" >prices</tspan></text></g><g id="v-150"  label-idx="1" cursor="move" transform="matrix(1,0,0,1,2439.029541015625,611.42626953125)" style="cursor: default;"><rect joint-selector="rect" id="v-155" fill="#ffffff" rx="3" ry="3" x="-26.015695571899414" y="-13.074283599853516" width="54.63634490966797" height="24.15237808227539"  pointer-events="none" style="display: block;"></rect><text joint-selector="text" id="v-154" font-size="16.799999999999997px" xml:space="preserve" fill="#444444" text-anchor="middle" pointer-events="none" font-family="Tahoma, Verdana, Helvetica, Arial" font-weight="normal"  style="display: block;"><tspan dy="0.3em" >[REST]</tspan></text></g><g id="v-151"  label-idx="2" cursor="move" transform="matrix(1,0,0,1,2429.029541015625,619.8262329101562)" style="cursor: default;"><rect joint-selector="rect" id="v-157" fill="#ffffff" rx="3" ry="3" x="-2.220446049250313e-16" y="0" width="0" height="0"  display="none"></rect><text joint-selector="text" id="v-156" fill="#000000" font-size="14" text-anchor="middle" text-vertical-anchor="middle" pointer-events="none"></text></g></g></g><!--z-index:30--><g   id="j_15"  style="opacity: 1;"><path fill="none" cursor="pointer" stroke="transparent" stroke-linecap="round" joint-selector="wrapper" id="v-171" stroke-width="10" stroke-linejoin="round" d="M 1440 506.43 L 1600 538 C 1606.6666666666665 539.3333333333333 1612.6666666666665 542.3333333333333 1618 547 L 1829.7 728"></path><path fill="none" pointer-events="none" joint-selector="line" id="v-170" stroke="#444444" stroke-width="4" stroke-linejoin="round" stroke-dasharray="16 16" d="M 1440 506.43 L 1600 538 C 1606.6666666666665 539.3333333333333 1612.6666666666665 542.3333333333333 1618 547 L 1829.7 728" marker-end="url(#v-2633353823)"></path><g id="v-160" ><g id="v-161"  label-idx="0" cursor="move" transform="matrix(1,0,0,1,1654.1358642578125,564.49560546875)" style="cursor: default;"><rect joint-selector="rect" id="v-165" fill="#ffffff" rx="3" ry="3" x="-45.04984664916992" y="-16.95237922668457" width="91.9365234375" height="30.190471649169922" pointer-events="none"  style="display: block;"></rect><text joint-selector="text" id="v-164" font-size="24px" xml:space="preserve" fill="#444444" text-anchor="middle" pointer-events="none" font-family="Tahoma, Verdana, Helvetica, Arial" font-weight="normal"  style="display: block;"><tspan dy="0.3em" >Get map</tspan></text></g><g id="v-162"  label-idx="1" cursor="move" transform="matrix(1,0,0,1,1654.1358642578125,594.8956298828125)" style="cursor: default;"><rect joint-selector="rect" id="v-167" fill="#ffffff" rx="3" ry="3" x="-26.015695571899414" y="-13.074283599853516" width="54.63634490966797" height="24.15237808227539"  pointer-events="none" style="display: block;"></rect><text joint-selector="text" id="v-166" font-size="16.799999999999997px" xml:space="preserve" fill="#444444" text-anchor="middle" pointer-events="none" font-family="Tahoma, Verdana, Helvetica, Arial" font-weight="normal"  style="display: block;"><tspan dy="0.3em" >[REST]</tspan></text></g><g id="v-163"  label-idx="2" cursor="move" transform="matrix(1,0,0,1,1644.1358642578125,603.2955932617188)" style="cursor: default;"><rect joint-selector="rect" id="v-169" fill="#ffffff" rx="3" ry="3" x="-2.220446049250313e-16" y="0" width="0" height="0"  display="none"></rect><text joint-selector="text" id="v-168" fill="#000000" font-size="14" text-anchor="middle" text-vertical-anchor="middle" pointer-events="none"></text></g></g></g><!--z-index:31--><g   id="j_16"  style="opacity: 1;"><path fill="none" cursor="pointer" stroke="transparent" stroke-linecap="round" joint-selector="wrapper" id="v-189" stroke-width="10" stroke-linejoin="round" d="M 600 511.19 L 760 551 C 766.6666666666665 552.3333333333333 773.3333333333333 553 780 553 L 930 553 C 936.6666666666666 553 943 552 949 550 L 990 536.45"></path><path fill="none" pointer-events="none" joint-selector="line" id="v-188" stroke="#444444" stroke-width="4" stroke-linejoin="round" stroke-dasharray="16 16" d="M 600 511.19 L 760 551 C 766.6666666666665 552.3333333333333 773.3333333333333 553 780 553 L 930 553 C 936.6666666666666 553 943 552 949 550 L 990 536.45" marker-end="url(#v-2633353823)"></path><g id="v-178" ><g id="v-179"  label-idx="0" cursor="move" transform="matrix(1,0,0,1,793.7432250976562,539.5999755859375)" style="cursor: default;"><rect joint-selector="rect" id="v-183" fill="#ffffff" rx="3" ry="3" x="-99.13324737548828" y="-31.35237693786621" width="199.643798828125" height="58.99047088623047" pointer-events="none"  style="display: block;"></rect><text joint-selector="text" id="v-182" font-size="24px" xml:space="preserve" fill="#444444" text-anchor="middle" pointer-events="none" font-family="Tahoma, Verdana, Helvetica, Arial" font-weight="normal"  style="display: block;"><tspan dy="-0.3em" >Request gas prices</tspan><tspan dy="1.2em" x="0" >in area</tspan></text></g><g id="v-180"  label-idx="1" cursor="move" transform="matrix(1,0,0,1,793.7432250976562,584.4000244140625)" style="cursor: default;"><rect joint-selector="rect" id="v-185" fill="#ffffff" rx="3" ry="3" x="-56.63072204589844" y="-13.074283599853516" width="115.8866195678711" height="24.15237808227539"  pointer-events="none" style="display: block;"></rect><text joint-selector="text" id="v-184" font-size="16.799999999999997px" xml:space="preserve" fill="#444444" text-anchor="middle" pointer-events="none" font-family="Tahoma, Verdana, Helvetica, Arial" font-weight="normal"  style="display: block;"><tspan dy="0.3em" >[UI interaction]</tspan></text></g><g id="v-181"  label-idx="2" cursor="move" transform="matrix(1,0,0,1,783.7432250976562,592.7999877929688)" style="cursor: default;"><rect joint-selector="rect" id="v-187" fill="#ffffff" rx="3" ry="3" x="-2.220446049250313e-16" y="0" width="0" height="0"  display="none"></rect><text joint-selector="text" id="v-186" fill="#000000" font-size="14" text-anchor="middle" text-vertical-anchor="middle" pointer-events="none"></text></g></g></g><!--z-index:32--></g><g  style="user-select: none;"></g><g ></g><g  display="none"><g ><g  data-tool-name="vertices" ><path fill="none" stroke="transparent" stroke-width="10" cursor="cell" joint-selector="connection" d="M 600 407.41 L 760 364 C 766.6666666666665 362 773.3333333333333 361 780 361 L 930 361 C 936.6666666666666 361 943 362 949 364 L 990 379.36" ></path><circle r="6" fill="#33334F" stroke="#FFFFFF" stroke-width="2" cursor="move"  transform="matrix(2,0,0,2,770,361)" ></circle><circle r="6" fill="#33334F" stroke="#FFFFFF" stroke-width="2" cursor="move"  transform="matrix(2,0,0,2,940,361)" ></circle></g></g><g ><g  data-tool-name="vertices" ><path fill="none" stroke="transparent" stroke-width="10" cursor="cell" joint-selector="connection" d="M 1440 432.95 L 1600 412 C 1606.6666666666665 411.3333333333333 1613.3333333333333 411 1620 411 L 1780 411" ></path><circle r="6" fill="#33334F" stroke="#FFFFFF" stroke-width="2" cursor="move"  transform="matrix(2,0,0,2,1610,411)" ></circle></g></g><g ><g  data-tool-name="vertices" ><path fill="none" stroke="transparent" stroke-width="10" cursor="cell" joint-selector="connection" d="M 2230 346.63 L 2390 301 C 2396.6666666666665 299 2403.333333333333 298.66666666666663 2410 300 L 2570 324.68" ></path><circle r="6" fill="#33334F" stroke="#FFFFFF" stroke-width="2" cursor="move"  transform="matrix(2,0,0,2,2400,298)" ></circle></g></g><g ><g  data-tool-name="vertices" ><path fill="none" stroke="transparent" stroke-width="10" cursor="cell" joint-selector="connection" d="M 2230 414.99 L 2390 418 C 2396.6666666666665 417.99999999999994 2403.333333333333 417.66666666666663 2410 417 L 2570 393.04" ></path><circle r="6" fill="#33334F" stroke="#FFFFFF" stroke-width="2" cursor="move"  transform="matrix(2,0,0,2,2400,418)" ></circle></g></g><g ><g  data-tool-name="vertices" ><path fill="none" stroke="transparent" stroke-width="10" cursor="cell" joint-selector="connection" d="M 2230 489.04 L 2391 545 C 2397 547 2402.6666666666665 550 2408 554 L 2615.45 728" ></path><circle r="6" fill="#33334F" stroke="#FFFFFF" stroke-width="2" cursor="move"  transform="matrix(2,0,0,2,2400,548)" ></circle></g></g><g ><g  data-tool-name="vertices" ><path fill="none" stroke="transparent" stroke-width="10" cursor="cell" joint-selector="connection" d="M 1440 506.43 L 1600 538 C 1606.6666666666665 539.3333333333333 1612.6666666666665 542.3333333333333 1618 547 L 1829.7 728" ></path><circle r="6" fill="#33334F" stroke="#FFFFFF" stroke-width="2" cursor="move"  transform="matrix(2,0,0,2,1610,540)" ></circle></g></g><g ><g  data-tool-name="vertices" ><path fill="none" stroke="transparent" stroke-width="10" cursor="cell" joint-selector="connection" d="M 600 511.19 L 760 551 C 766.6666666666665 552.3333333333333 773.3333333333333 553 780 553 L 930 553 C 936.6666666666666 553 943 552 949 550 L 990 536.45" ></path><circle r="6" fill="#33334F" stroke="#FFFFFF" stroke-width="2" cursor="move"  transform="matrix(2,0,0,2,770,553)" ></circle><circle r="6" fill="#33334F" stroke="#FFFFFF" stroke-width="2" cursor="move"  transform="matrix(2,0,0,2,940,553)" ></circle></g></g><!--z-index:1--></g></g></svg>
